<svg id="Ebene_1" data-name="Ebene 1" xmlns="http://www.w3.org/2000/svg" viewBox="0 0 1320.55 452.55"><defs><style>.cls-1{opacity:0.6;}.cls-2,.cls-3{fill:#4e6f74;}.cls-3{opacity:0.9;}.cls-4{fill:#dddb00;}</style></defs><title>Zeichenfläche 1 Kopie 5</title><g class="cls-1"><path class="cls-2" d="M122.36,110.69,27.74,71.31C14,79.07,4.32,85.88,2,90.59c-9.78,19.72,19.69,80.13,19.69,80.13C35,195.39,31.2,189.14,42.2,207.34c8.22,13.6,19.23,20.77,37.94,20.82Z"/></g><path class="cls-3" d="M182.16,3.76C160.72,10.81,94.6,37.28,48.58,60.29l214.31,89.19c3.82-32-11.06-87.19-17.6-111.41C236.57,5.78,215-7,182.16,3.76Z"/><path class="cls-4" d="M139.16,117.68,100.21,226.06c.61-.11,1.18-.19,1.79-.32,34.3-6.79,38.9-.45,61.8,12.6,25.22,13.75,28.38,27.29,30.75,6.37,10.72-52.33,31.57-58.72,57.29-72.9a16.41,16.41,0,0,0,5.38-5Z"/><path class="cls-2" d="M256.12,332.64q-13.26-15.81-14.48-42.32l-.24-8.1.24-8.1q1-26,14.36-42.08T294.15,216q23.57,0,37.54,16.2V177.69a5.6,5.6,0,0,1,1.72-4.29,5.9,5.9,0,0,1,4.17-1.59h21.35a5.5,5.5,0,0,1,5.89,5.88V340.13a5.86,5.86,0,0,1-1.6,4.17,5.55,5.55,0,0,1-4.29,1.72H339.06a5.86,5.86,0,0,1-5.89-5.89v-9.08q-13.5,17.43-39,17.42Q269.37,348.47,256.12,332.64ZM324.21,313q6.75-9,7.48-22.21c.16-2,.25-5.07.25-9.32,0-4.42-.09-7.61-.25-9.57a33.83,33.83,0,0,0-7.6-20.86q-7.12-8.59-20.61-8.59-26.26,0-28,32.39l-.24,7.36.24,7.36q1.72,32.4,28,32.39Q317.46,322,324.21,313Z"/><path class="cls-2" d="M394.56,195.85a5.64,5.64,0,0,1-1.72-4.17V173.77a6,6,0,0,1,1.72-4.42,5.7,5.7,0,0,1,4.17-1.72h22.58a5.89,5.89,0,0,1,6.13,6.14v17.91a5.47,5.47,0,0,1-1.84,4.17,6.08,6.08,0,0,1-4.29,1.72H398.73A5.66,5.66,0,0,1,394.56,195.85Zm1,148.45a5.64,5.64,0,0,1-1.71-4.17V224.31a5.57,5.57,0,0,1,1.71-4.29,5.93,5.93,0,0,1,4.18-1.6h20.85a5.87,5.87,0,0,1,5.89,5.89V340.13a5.87,5.87,0,0,1-5.89,5.89H399.72A5.67,5.67,0,0,1,395.54,344.3Z"/><path class="cls-2" d="M469.13,343.44a41.6,41.6,0,0,1-16.45-13.62,32.19,32.19,0,0,1-6-18.89q0-16.68,13.5-27t37.05-14L530.84,265v-5.15q0-10.54-5.4-15.95t-17.18-5.4q-8.1,0-13,3a41,41,0,0,0-8,6l-4,4.05c-.66,2-1.89,2.95-3.69,2.95H460.41a5.42,5.42,0,0,1-3.8-1.48A5.09,5.09,0,0,1,455,249.1q.24-6.14,6-13.87t17.79-13.49q12-5.76,29.69-5.77,28.95,0,42.2,13T564,263.08v77.05a5.9,5.9,0,0,1-1.59,4.17,5.58,5.58,0,0,1-4.3,1.72H537.71a5.86,5.86,0,0,1-5.89-5.89v-9.57a40.19,40.19,0,0,1-15.21,12.88q-9.83,5-24.54,5A52,52,0,0,1,469.13,343.44Zm53.36-27.36q8.6-8.82,8.59-25.52v-4.9l-24.53,3.92q-28.23,4.43-28.22,18.9a13.71,13.71,0,0,0,6.5,12.14,27.57,27.57,0,0,0,15.58,4.3Q513.9,324.92,522.49,316.08Z"/><path class="cls-2" d="M588.85,344.3a5.64,5.64,0,0,1-1.72-4.17V177.69a5.56,5.56,0,0,1,1.72-4.29,5.9,5.9,0,0,1,4.17-1.59h20.61a5.5,5.5,0,0,1,5.89,5.88V340.13a5.86,5.86,0,0,1-1.6,4.17,5.55,5.55,0,0,1-4.29,1.72H593A5.64,5.64,0,0,1,588.85,344.3Z"/><path class="cls-2" d="M657.66,333.75Q642,319,640.73,293l-.24-10.8.24-10.79q1.23-25.77,17.18-40.61T702.32,216q28.21,0,44.17,14.85t17.17,40.61c.16,2,.25,5.56.25,10.79s-.09,8.84-.25,10.8q-1.23,26-16.93,40.73t-44.41,14.72Q673.37,348.47,657.66,333.75Zm64.66-18.16q7-8.08,7.48-23.8c.16-1.63.25-4.82.25-9.57s-.09-7.93-.25-9.57q-.49-15.69-7.6-23.92t-19.88-8.22q-13,0-20.12,8.22t-7.61,23.92l-.24,9.57.24,9.57q.49,15.7,7.61,23.8t20.12,8.1Q715.33,323.69,722.32,315.59Z"/><path class="cls-2" d="M806.18,392.76Q792.7,385.52,787,376.2t-5.64-15.95a5.26,5.26,0,0,1,1.72-4.05,5.9,5.9,0,0,1,4.17-1.59h21.84a6.47,6.47,0,0,1,3.8,1.1,7.81,7.81,0,0,1,2.58,4.05,28.74,28.74,0,0,0,8.09,10.92q5.4,4.53,16.69,4.54,14.72,0,21.6-6.5t6.86-22.7V329.33Q855.5,345,831.21,345q-25.51,0-38.4-15.46T779,287.37l-.25-6.62.25-6.63q1-26.25,14-42.2T831.21,216q13,0,22.82,4.91a46,46,0,0,1,16.2,13.25v-9.57a5.8,5.8,0,0,1,1.83-4.42,6.13,6.13,0,0,1,4.3-1.72h20.12a5.7,5.7,0,0,1,4.17,1.72,6,6,0,0,1,1.72,4.42l.25,118.27q0,27.24-15.22,42.2t-45.88,15Q819.68,400,806.18,392.76Zm55-82.56q6.86-8.83,7.6-21.6c.16-1.31.25-3.92.25-7.85s-.09-6.54-.25-7.85q-.74-12.76-7.6-21.59t-20.61-8.84q-26.5,0-28,32.39l-.24,5.89q0,38.28,28.22,38.28Q854.28,319,861.15,310.2Z"/><path class="cls-2" d="M953.78,329.82v10.55a5.46,5.46,0,0,1-5.65,5.65H937.82a5.46,5.46,0,0,1-5.64-5.65V177.45a5.37,5.37,0,0,1,1.6-4.17,5.68,5.68,0,0,1,4-1.47h11a5.46,5.46,0,0,1,5.64,5.64v56.68Q968.25,216,994.26,216q25.77,0,38.65,16.81t13.61,42.08c.17,1.8.25,4.26.25,7.36s-.08,5.57-.25,7.36q-.74,25.28-13.61,42.08t-38.65,16.81Q967.76,348.47,953.78,329.82Zm61.58-11.53q8.1-11,8.83-29c.17-1.63.25-4,.25-7.12q0-47.12-34.84-47.11-16.7,0-25.65,10.92a41.83,41.83,0,0,0-9.44,25.89q-.25,2.7-.25,9.57,0,6.61.25,9.32.5,15.7,9.2,27.12t25.89,11.4Q1007.27,329.33,1015.36,318.29Z"/><path class="cls-2" d="M1072.41,192.79a5.52,5.52,0,0,1-1.59-4.06V176a5.9,5.9,0,0,1,1.59-4.17,5.26,5.26,0,0,1,4-1.72h14.48a5.86,5.86,0,0,1,5.88,5.89v12.75a5.32,5.32,0,0,1-1.71,4.06,5.93,5.93,0,0,1-4.17,1.59h-14.48A5.49,5.49,0,0,1,1072.41,192.79Zm2,151.64a5.49,5.49,0,0,1-1.6-4.06V224.07a5.47,5.47,0,0,1,5.64-5.65h10.8a5.46,5.46,0,0,1,5.64,5.65v116.3a5.44,5.44,0,0,1-5.64,5.65h-10.8A5.48,5.48,0,0,1,1074.38,344.43Z"/><path class="cls-2" d="M1140.33,303.08V237.32h-19.39a5.06,5.06,0,0,1-5.39-5.4v-7.85a5.72,5.72,0,0,1,1.47-4,5.08,5.08,0,0,1,3.92-1.6h19.39v-41a5.75,5.75,0,0,1,1.47-4,5.09,5.09,0,0,1,3.93-1.59h10.79a5.46,5.46,0,0,1,5.65,5.64v41h30.42a5.46,5.46,0,0,1,5.64,5.65v7.85a5.09,5.09,0,0,1-1.59,3.93,5.73,5.73,0,0,1-4.05,1.47h-30.42v64q0,12.51,4,18.9c2.71,4.25,7.32,6.38,13.87,6.38h15a5.09,5.09,0,0,1,3.92,1.59,5.73,5.73,0,0,1,1.47,4v8.09a5.77,5.77,0,0,1-1.47,4.06,5.09,5.09,0,0,1-3.92,1.59h-16.69Q1140.32,346,1140.33,303.08Z"/><path class="cls-2" d="M1239.7,343q-11.65-5.52-17.3-12.64c-3.77-4.74-5.64-8.66-5.64-11.77a4.56,4.56,0,0,1,1.71-3.81,5.88,5.88,0,0,1,3.68-1.34h10.31a4.81,4.81,0,0,1,2.33.48,11.13,11.13,0,0,1,2.33,2.21,44.47,44.47,0,0,0,12.64,10.8q7,3.93,18.77,3.93,13.24,0,21.22-4.91a15.72,15.72,0,0,0,8-14.23q0-6.14-3.43-9.82t-11.41-6.62q-8-3-23.68-6.38-21.35-4.67-30.18-13.5t-8.83-22.82a32.17,32.17,0,0,1,5.4-17.54q5.39-8.46,16.07-13.74t25.39-5.28q15.46,0,26.38,5.15t16.44,12q5.52,6.87,5.52,11.53a4.81,4.81,0,0,1-1.59,3.68,5.43,5.43,0,0,1-3.81,1.47h-9.32a5.14,5.14,0,0,1-4.91-2.69q-4.17-4.66-7-7.25a23.45,23.45,0,0,0-8.22-4.41,42.27,42.27,0,0,0-13.5-1.84q-12,0-18.4,5a16.18,16.18,0,0,0-6.38,13.37,14,14,0,0,0,2.7,8.71q2.7,3.56,10.31,6.63t22.57,6.26q23.31,4.91,33,14t9.69,23.31a32.58,32.58,0,0,1-6,19.14q-6,8.6-17.91,13.49t-28.34,4.91Q1251.35,348.47,1239.7,343Z"/><path class="cls-4" d="M254.18,450.79a2.33,2.33,0,0,1-.69-1.75V404.4h-9.14a2.54,2.54,0,0,1-1.76-.64,2.19,2.19,0,0,1-.68-1.7v-3.4a2.36,2.36,0,0,1,2.44-2.45h9.14V390.9q0-8.61,4.2-13.34t13.77-4.73h6.27a2.35,2.35,0,0,1,2.44,2.44v3.4a2.22,2.22,0,0,1-.69,1.71,2.51,2.51,0,0,1-1.75.63h-6.06c-3.26,0-5.53.86-6.81,2.55s-1.91,4.33-1.91,7.87v4.78h13.71a2.38,2.38,0,0,1,2.45,2.45v3.4a2.19,2.19,0,0,1-.69,1.7,2.52,2.52,0,0,1-1.76.64H263V449a2.38,2.38,0,0,1-2.44,2.45h-4.57A2.36,2.36,0,0,1,254.18,450.79Z"/><path class="cls-4" d="M289.26,450.79a2.33,2.33,0,0,1-.69-1.75V398.76a2.55,2.55,0,0,1,.69-1.8,2.29,2.29,0,0,1,1.76-.75h4.46a2.39,2.39,0,0,1,2.55,2.55v4.68q4.37-7.23,14.78-7.23H317a2.23,2.23,0,0,1,2.45,2.45v3.93a2.49,2.49,0,0,1-.64,1.76A2.35,2.35,0,0,1,317,405h-6.06q-5.85,0-9.19,3.4t-3.35,9.25V449a2.24,2.24,0,0,1-.75,1.75,2.5,2.5,0,0,1-1.8.7H291A2.36,2.36,0,0,1,289.26,450.79Z"/><path class="cls-4" d="M333.38,450.43a18,18,0,0,1-7-5.79,13.72,13.72,0,0,1-2.6-8.14A13.92,13.92,0,0,1,329.49,425q5.75-4.45,15.63-6l15.95-2.22v-3.09q0-10.94-12.65-10.95a14.07,14.07,0,0,0-7.87,2,12.51,12.51,0,0,0-4.36,4.63,3.38,3.38,0,0,1-.9,1.43,2.1,2.1,0,0,1-1.33.37h-4.15a2.36,2.36,0,0,1-2.33-2.33,10.41,10.41,0,0,1,2.28-5.7,18.49,18.49,0,0,1,7.07-5.63,26,26,0,0,1,11.69-2.39q11.91,0,17.07,5.53a19.49,19.49,0,0,1,5.15,13.82V449a2.38,2.38,0,0,1-2.44,2.45h-4.68a2.17,2.17,0,0,1-1.7-.7,2.42,2.42,0,0,1-.64-1.75v-4.67a18.08,18.08,0,0,1-6.8,5.85A24.82,24.82,0,0,1,343,452.55,21.94,21.94,0,0,1,333.38,450.43Zm23.22-10.21q4.47-4.58,4.47-13.29v-3l-12.44,1.81Q341,426.83,337,429.38t-3.93,6.37a7.57,7.57,0,0,0,3.56,6.71,15.11,15.11,0,0,0,8.45,2.34A15.33,15.33,0,0,0,356.6,440.22Z"/><path class="cls-4" d="M386.84,450.79a2.33,2.33,0,0,1-.69-1.75V398.66a2.38,2.38,0,0,1,2.45-2.45h4.46a2.17,2.17,0,0,1,1.7.7,2.45,2.45,0,0,1,.64,1.75v3.61q5.75-7.11,15.52-7.12,11.7,0,16.58,9.78a18.77,18.77,0,0,1,7.29-7.12,21.2,21.2,0,0,1,10.57-2.66,18.61,18.61,0,0,1,14.25,6q5.52,6,5.52,17.23V449a2.38,2.38,0,0,1-2.44,2.45h-4.57a2.38,2.38,0,0,1-2.45-2.45V419.28q0-8.5-3.51-12.17a12.17,12.17,0,0,0-9.24-3.67,11.79,11.79,0,0,0-8.77,3.78q-3.67,3.76-3.67,12.06V449a2.38,2.38,0,0,1-2.45,2.45h-4.67a2.38,2.38,0,0,1-2.45-2.45V419.28q0-8.4-3.66-12.12a12.27,12.27,0,0,0-9.09-3.72,11.88,11.88,0,0,0-8.77,3.72q-3.67,3.72-3.67,12V449a2.38,2.38,0,0,1-2.44,2.45H388.6A2.36,2.36,0,0,1,386.84,450.79Z"/><path class="cls-4" d="M485.12,445.8q-6.48-6.75-7.12-18.44l-.11-3.61.11-3.51q.63-11.49,7.12-18.29t17.33-6.8q11.69,0,18.12,7.44t6.43,20.2v1.91a2.36,2.36,0,0,1-2.45,2.45H487.67v1a19.79,19.79,0,0,0,4.25,11.8,12.74,12.74,0,0,0,10.42,4.89,15,15,0,0,0,8.13-2,17.07,17.07,0,0,0,4.73-4.09,5.29,5.29,0,0,1,1.49-1.53,4.29,4.29,0,0,1,1.81-.27h4.67a2.59,2.59,0,0,1,1.65.53,1.65,1.65,0,0,1,.69,1.38q0,2.34-2.87,5.63a23.31,23.31,0,0,1-8.13,5.69,28.94,28.94,0,0,1-12.06,2.39Q491.61,452.55,485.12,445.8Zm32.21-25.88v-.32q0-7.44-4-12.12a13.61,13.61,0,0,0-10.84-4.68q-6.92,0-10.85,4.68t-3.93,12.12v.32Z"/><path class="cls-4" d="M550.92,450.85a4.11,4.11,0,0,1-1.17-2l-15.09-49.32-.22-1.06a2.2,2.2,0,0,1,.64-1.6,2.16,2.16,0,0,1,1.59-.64H541a2.64,2.64,0,0,1,1.76.59,2.1,2.1,0,0,1,.79,1.12l12,40.6,12.75-40.07a3,3,0,0,1,1-1.54,2.81,2.81,0,0,1,2-.7h3.4a2.82,2.82,0,0,1,2,.7,3.18,3.18,0,0,1,1,1.54l12.75,40.07,12-40.6a2.12,2.12,0,0,1,.8-1.12,2.64,2.64,0,0,1,1.76-.59h4.35a2.16,2.16,0,0,1,1.6.64,2.2,2.2,0,0,1,.64,1.6l-.22,1.06-15.09,49.32a4.27,4.27,0,0,1-1.17,2,3.33,3.33,0,0,1-2.23.64h-3.83a3.48,3.48,0,0,1-3.61-2.66L573,410.36l-12.44,38.47a3.49,3.49,0,0,1-3.61,2.66h-3.83A3.32,3.32,0,0,1,550.92,450.85Z"/><path class="cls-4" d="M626.45,446q-6.33-6.58-6.75-17.54l-.11-4.57.11-4.57q.42-10.95,6.85-17.54t17.91-6.59q11.49,0,17.92,6.59t6.85,17.54c.14,1.56.22,3.08.22,4.57s-.08,3-.22,4.57q-.42,10.95-6.75,17.54t-18,6.59Q632.77,452.55,626.45,446Zm28.81-5.68q4-4.32,4.3-12.39c.07-.71.11-2.06.11-4s0-3.33-.11-4q-.31-8.07-4.3-12.38t-10.8-4.31q-6.8,0-10.79,4.31t-4.3,12.38l-.1,4,.1,4q.32,8.07,4.3,12.39t10.79,4.3Q651.27,444.58,655.26,440.28Z"/><path class="cls-4" d="M683.53,450.79a2.33,2.33,0,0,1-.69-1.75V398.76a2.55,2.55,0,0,1,.69-1.8,2.28,2.28,0,0,1,1.75-.75h4.47a2.39,2.39,0,0,1,2.55,2.55v4.68q4.35-7.23,14.78-7.23h4.14a2.21,2.21,0,0,1,2.44,2.45v3.93a2.53,2.53,0,0,1-.63,1.76,2.35,2.35,0,0,1-1.81.69h-6.06q-5.85,0-9.19,3.4t-3.35,9.25V449a2.24,2.24,0,0,1-.75,1.75,2.5,2.5,0,0,1-1.8.7h-4.79A2.35,2.35,0,0,1,683.53,450.79Z"/><path class="cls-4" d="M723.6,450.79a2.33,2.33,0,0,1-.68-1.75V378.46a2.35,2.35,0,0,1,.68-1.81,2.49,2.49,0,0,1,1.76-.63h4.57a2.38,2.38,0,0,1,2.45,2.44v37.1L753.63,398a19,19,0,0,1,2.24-1.49,4.77,4.77,0,0,1,2-.32h5.31a2.08,2.08,0,0,1,1.54.59,2.23,2.23,0,0,1,.59,1.65,2.87,2.87,0,0,1-1.17,2l-24.87,20.41,27.53,26.37a3.17,3.17,0,0,1,1.17,2,2.27,2.27,0,0,1-.59,1.59,2,2,0,0,1-1.54.64h-5.21a5.88,5.88,0,0,1-2.28-.32,8.72,8.72,0,0,1-2-1.49l-24-22.75V449a2.39,2.39,0,0,1-2.45,2.45h-4.57A2.37,2.37,0,0,1,723.6,450.79Z"/></svg>